<svg width="500" height="500" viewBox="0 0 500 500" fill="none" xmlns="http://www.w3.org/2000/svg">
<path d="M249.01 79.0801C214.741 79.0801 175.575 121.595 175.575 121.595C175.575 121.595 167.587 111.546 145.943 111.804C124.299 112.061 83.5879 144.528 67.6126 182.92C51.6372 221.312 49.0605 245.275 49.0605 268.981C49.0605 292.686 57.0482 358.649 106.778 386.219C156.508 413.79 207.526 420.231 248.495 420.231C289.464 420.231 346.408 413.274 395.623 386.219C444.837 359.164 450.248 301.962 450.248 268.981C450.248 235.999 442.776 213.582 430.15 182.92C417.525 152.258 376.555 111.804 355.942 112.061C335.329 112.319 323.476 121.595 323.476 121.595C323.476 121.595 283.28 79.0801 249.01 79.0801Z" fill="#FBC627"/>
<ellipse cx="130.49" cy="239.858" rx="58.7481" ry="76.2695" fill="white"/>
<ellipse cx="368.568" cy="239.858" rx="58.7481" ry="76.2695" fill="white"/>
<ellipse cx="133.009" cy="241.12" rx="36.7995" ry="45.0536" fill="black"/>
<ellipse cx="361.807" cy="241.12" rx="39.9046" ry="45.0536" fill="black"/>
<ellipse cx="269.958" cy="314.33" rx="9.01835" ry="4.25969" transform="rotate(-30 269.958 314.33)" fill="black"/>
<ellipse cx="9.01835" cy="4.25969" rx="9.01835" ry="4.25969" transform="matrix(-0.866025 -0.5 -0.5 0.866025 239.018 315.15)" fill="black"/>
</svg>
