<svg width="500" height="500" viewBox="0 0 500 500" fill="none" xmlns="http://www.w3.org/2000/svg">
<g clip-path="url(#clip0_6518_1279)">
<rect width="499.311" height="499.311" rx="99.8622" fill="white"/>
<g clip-path="url(#clip1_6518_1279)">
<path d="M249.737 0C145.508 0 115.025 0.107566 109.1 0.599171C87.7103 2.37763 74.4005 5.7464 59.9 12.9676C48.7253 18.5183 39.9121 24.9522 31.2142 33.9713C15.3738 50.4192 5.77343 70.6545 2.29804 94.708C0.608466 106.385 0.116857 108.767 0.0170264 168.413C-0.021283 188.295 0.0170264 214.461 0.0170264 249.557C0.0170264 353.73 0.132142 384.191 0.631485 390.106C2.35956 410.925 5.62358 424.024 12.5359 438.351C25.746 465.777 50.9754 486.366 80.6982 494.048C90.9898 496.699 102.357 498.158 116.949 498.85C123.132 499.119 186.148 499.311 249.203 499.311C312.258 499.311 375.313 499.234 381.342 498.927C398.239 498.131 408.05 496.814 418.898 494.01C448.813 486.289 473.582 466.008 487.061 438.198C493.839 424.216 497.275 410.618 498.831 390.886C499.169 386.584 499.311 317.992 499.311 249.492C499.311 180.981 499.157 112.516 498.819 108.213C497.245 88.1626 493.808 74.6802 486.811 60.4293C481.07 48.7636 474.696 40.0517 465.441 31.1443C448.925 15.3647 428.725 5.76169 404.655 2.28931C392.993 0.602948 390.67 0.103605 330.994 0H249.737Z" fill="url(#paint0_radial_6518_1279)"/>
<path d="M249.737 0C145.508 0 115.025 0.107566 109.1 0.599171C87.7103 2.37763 74.4005 5.7464 59.9 12.9676C48.7253 18.5183 39.9121 24.9522 31.2142 33.9713C15.3738 50.4192 5.77343 70.6545 2.29804 94.708C0.608466 106.385 0.116857 108.767 0.0170264 168.413C-0.021283 188.295 0.0170264 214.461 0.0170264 249.557C0.0170264 353.73 0.132142 384.191 0.631485 390.106C2.35956 410.925 5.62358 424.024 12.5359 438.351C25.746 465.777 50.9754 486.366 80.6982 494.048C90.9898 496.699 102.357 498.158 116.949 498.85C123.132 499.119 186.148 499.311 249.203 499.311C312.258 499.311 375.313 499.234 381.342 498.927C398.239 498.131 408.05 496.814 418.898 494.01C448.813 486.289 473.582 466.008 487.061 438.198C493.839 424.216 497.275 410.618 498.831 390.886C499.169 386.584 499.311 317.992 499.311 249.492C499.311 180.981 499.157 112.516 498.819 108.213C497.245 88.1626 493.808 74.6802 486.811 60.4293C481.07 48.7636 474.696 40.0517 465.441 31.1443C448.925 15.3647 428.725 5.76169 404.655 2.28931C392.993 0.602948 390.67 0.103605 330.994 0H249.737Z" fill="url(#paint1_radial_6518_1279)"/>
<path d="M249.737 0C145.508 0 115.025 0.107566 109.1 0.599171C87.7103 2.37763 74.4005 5.7464 59.9 12.9676C48.7253 18.5183 39.9121 24.9522 31.2142 33.9713C15.3738 50.4192 5.77343 70.6545 2.29804 94.708C0.608466 106.385 0.116857 108.767 0.0170264 168.413C-0.021283 188.295 0.0170264 214.461 0.0170264 249.557C0.0170264 353.73 0.132142 384.191 0.631485 390.106C2.35956 410.925 5.62358 424.024 12.5359 438.351C25.746 465.777 50.9754 486.366 80.6982 494.048C90.9898 496.699 102.357 498.158 116.949 498.85C123.132 499.119 186.148 499.311 249.203 499.311C312.258 499.311 375.313 499.234 381.342 498.927C398.239 498.131 408.05 496.814 418.898 494.01C448.813 486.289 473.582 466.008 487.061 438.198C493.839 424.216 497.275 410.618 498.831 390.886C499.169 386.584 499.311 317.992 499.311 249.492C499.311 180.981 499.157 112.516 498.819 108.213C497.245 88.1626 493.808 74.6802 486.811 60.4293C481.07 48.7636 474.696 40.0517 465.441 31.1443C448.925 15.3647 428.725 5.76169 404.655 2.28931C392.993 0.602948 390.67 0.103605 330.994 0H249.737Z" fill="url(#paint2_radial_6518_1279)"/>
<path d="M249.737 0C145.508 0 115.025 0.107566 109.1 0.599171C87.7103 2.37763 74.4005 5.7464 59.9 12.9676C48.7253 18.5183 39.9121 24.9522 31.2142 33.9713C15.3738 50.4192 5.77343 70.6545 2.29804 94.708C0.608466 106.385 0.116857 108.767 0.0170264 168.413C-0.021283 188.295 0.0170264 214.461 0.0170264 249.557C0.0170264 353.73 0.132142 384.191 0.631485 390.106C2.35956 410.925 5.62358 424.024 12.5359 438.351C25.746 465.777 50.9754 486.366 80.6982 494.048C90.9898 496.699 102.357 498.158 116.949 498.85C123.132 499.119 186.148 499.311 249.203 499.311C312.258 499.311 375.313 499.234 381.342 498.927C398.239 498.131 408.05 496.814 418.898 494.01C448.813 486.289 473.582 466.008 487.061 438.198C493.839 424.216 497.275 410.618 498.831 390.886C499.169 386.584 499.311 317.992 499.311 249.492C499.311 180.981 499.157 112.516 498.819 108.213C497.245 88.1626 493.808 74.6802 486.811 60.4293C481.07 48.7636 474.696 40.0517 465.441 31.1443C448.925 15.3647 428.725 5.76169 404.655 2.28931C392.993 0.602948 390.67 0.103605 330.994 0H249.737Z" fill="url(#paint3_radial_6518_1279)"/>
<path d="M249.757 64.1133C199.338 64.1133 193.01 64.3335 173.208 65.2341C153.444 66.1384 139.954 69.265 128.15 73.8527C115.94 78.5908 105.582 84.929 95.2632 95.2441C84.9367 105.555 78.5935 115.905 73.8364 128.103C69.2338 139.902 66.1009 153.386 65.2115 173.127C64.3259 192.915 64.0938 199.242 64.0938 249.623C64.0938 300.004 64.3181 306.308 65.2153 326.095C66.1243 345.844 69.2532 359.325 73.8402 371.12C78.5858 383.321 84.9287 393.671 95.2515 403.982C105.567 414.301 115.924 420.655 128.127 425.393C139.938 429.981 153.433 433.107 173.192 434.012C192.995 434.912 199.319 435.133 249.733 435.133C300.156 435.133 306.464 434.912 326.267 434.012C346.03 433.107 359.536 429.981 371.348 425.393C383.554 420.655 393.896 414.301 404.212 403.982C414.538 393.671 420.881 383.321 425.638 371.124C430.202 359.325 433.335 345.841 434.263 326.099C435.153 306.312 435.385 300.004 435.385 249.623C435.385 199.241 435.153 192.919 434.263 173.131C433.335 153.382 430.202 139.902 425.638 128.106C420.881 115.905 414.538 105.555 404.212 95.2441C393.885 84.9251 383.558 78.5869 371.336 73.8525C359.501 69.265 346.003 66.1384 326.24 65.2341C306.437 64.3335 300.133 64.1133 249.699 64.1133H249.757ZM233.102 97.5437C238.045 97.536 243.561 97.5437 249.757 97.5437C299.325 97.5437 305.199 97.7215 324.774 98.6104C342.874 99.4375 352.698 102.46 359.242 104.999C367.906 108.361 374.082 112.381 380.576 118.873C387.074 125.366 391.096 131.55 394.469 140.207C397.01 146.738 400.038 156.555 400.862 174.642C401.752 194.198 401.945 200.073 401.945 249.58C401.945 299.088 401.752 304.963 400.862 324.519C400.034 342.606 397.01 352.422 394.469 358.954C391.104 367.611 387.074 373.775 380.576 380.264C374.079 386.757 367.91 390.776 359.242 394.139C352.706 396.69 342.874 399.704 324.774 400.531C305.203 401.42 299.325 401.613 249.757 401.613C200.185 401.613 194.31 401.42 174.74 400.531C156.639 399.696 146.815 396.674 140.267 394.135C131.604 390.773 125.415 386.753 118.918 380.26C112.42 373.768 108.398 367.599 105.025 358.938C102.484 352.407 99.4557 342.59 98.632 324.503C97.7424 304.947 97.5644 299.073 97.5644 249.534C97.5644 199.995 97.7424 194.152 98.632 174.596C99.4597 156.509 102.484 146.692 105.025 140.153C108.39 131.496 112.42 125.312 118.918 118.819C125.415 112.326 131.604 108.307 140.267 104.937C146.811 102.386 156.639 99.3718 174.74 98.5407C191.866 97.7677 198.502 97.536 233.103 97.4971L233.102 97.5437ZM348.854 128.346C336.555 128.346 326.576 138.306 326.576 150.599C326.576 162.889 336.555 172.861 348.854 172.861C361.153 172.861 371.132 162.889 371.132 150.599C371.132 138.309 361.153 128.338 348.854 128.338L348.854 128.346ZM249.757 154.356C197.106 154.356 154.419 197.012 154.419 249.623C154.419 302.234 197.106 344.87 249.757 344.87C302.407 344.87 345.079 302.234 345.079 249.623C345.079 197.012 302.403 154.356 249.753 154.356H249.757ZM249.757 187.786C283.931 187.786 311.639 215.47 311.639 249.623C311.639 283.772 283.931 311.459 249.757 311.459C215.578 311.459 187.874 283.772 187.874 249.623C187.874 215.47 215.578 187.786 249.757 187.786Z" fill="white"/>
</g>
</g>
<defs>
<radialGradient id="paint0_radial_6518_1279" cx="0" cy="0" r="1" gradientTransform="matrix(-307.054 86.5963 -62.3894 -221.217 483.188 234.033)" gradientUnits="userSpaceOnUse">
<stop stop-color="#FF005F"/>
<stop offset="1" stop-color="#FC01D8"/>
</radialGradient>
<radialGradient id="paint1_radial_6518_1279" cx="0" cy="0" r="1" gradientUnits="userSpaceOnUse" gradientTransform="translate(132.626 537.768) rotate(-90) scale(398.559 422.863)">
<stop stop-color="#FFCC00"/>
<stop offset="0.1242" stop-color="#FFCC00"/>
<stop offset="0.5672" stop-color="#FE4A05"/>
<stop offset="0.6942" stop-color="#FF0F3F"/>
<stop offset="1" stop-color="#FE0657" stop-opacity="0"/>
</radialGradient>
<radialGradient id="paint2_radial_6518_1279" cx="0" cy="0" r="1" gradientTransform="matrix(82.7267 -142.541 185.572 107.701 262.273 492.269)" gradientUnits="userSpaceOnUse">
<stop stop-color="#FFCC00"/>
<stop offset="1" stop-color="#FFCC00" stop-opacity="0"/>
</radialGradient>
<radialGradient id="paint3_radial_6518_1279" cx="0" cy="0" r="1" gradientTransform="matrix(-303.683 85.512 -29.1264 -103.467 67.7458 20.3318)" gradientUnits="userSpaceOnUse">
<stop stop-color="#780CFF"/>
<stop offset="1" stop-color="#820BFF" stop-opacity="0"/>
</radialGradient>
<clipPath id="clip0_6518_1279">
<rect width="499.311" height="499.311" rx="99.8622" fill="white"/>
</clipPath>
<clipPath id="clip1_6518_1279">
<rect width="499.311" height="499.311" fill="white"/>
</clipPath>
</defs>
</svg>
