<svg width="500" height="500" viewBox="0 0 500 500" fill="none" xmlns="http://www.w3.org/2000/svg">
<g clip-path="url(#clip0_6518_1273)">
<rect width="499.311" height="499.311" rx="99.8622" fill="white"/>
<g clip-path="url(#clip1_6518_1273)">
<path fill-rule="evenodd" clip-rule="evenodd" d="M55.479 499.311H443.832C474.472 499.311 499.311 474.472 499.311 443.832V55.479C499.311 24.8388 474.472 0 443.832 0H55.479C24.8388 0 0 24.8388 0 55.479V443.832C0 474.472 24.8388 499.311 55.479 499.311Z" fill="#007EBB"/>
<path fill-rule="evenodd" clip-rule="evenodd" d="M429.963 429.962H355.868V303.762C355.868 269.161 342.721 249.825 315.334 249.825C285.542 249.825 269.976 269.948 269.976 303.762V429.962H198.569V189.553H269.976V221.936C269.976 221.936 291.446 182.208 342.463 182.208C393.456 182.208 429.963 213.348 429.963 277.75V429.962ZM113.382 158.073C89.0589 158.073 69.3496 138.21 69.3496 113.711C69.3496 89.2126 89.0589 69.3486 113.382 69.3486C137.704 69.3486 157.402 89.2126 157.402 113.711C157.402 138.21 137.704 158.073 113.382 158.073ZM76.5102 429.962H150.969V189.553H76.5102V429.962Z" fill="white"/>
</g>
</g>
<defs>
<clipPath id="clip0_6518_1273">
<rect width="499.311" height="499.311" rx="99.8622" fill="white"/>
</clipPath>
<clipPath id="clip1_6518_1273">
<rect width="499.311" height="499.311" fill="white"/>
</clipPath>
</defs>
</svg>
