<svg width="500" height="500" viewBox="0 0 500 500" fill="none" xmlns="http://www.w3.org/2000/svg">
<rect width="499.311" height="499.311" rx="99.8622" fill="white"/>
<g clip-path="url(#clip0_6674_1828)">
<path d="M337.568 236.119C335.971 235.353 334.35 234.617 332.707 233.912C329.846 181.194 301.04 151.013 252.671 150.704C252.452 150.702 252.234 150.702 252.015 150.702C223.084 150.702 199.023 163.052 184.213 185.523L210.814 203.771C221.878 186.986 239.24 183.407 252.027 183.407C252.175 183.407 252.323 183.407 252.47 183.409C268.396 183.51 280.413 188.141 288.192 197.171C293.852 203.745 297.638 212.83 299.513 224.295C285.392 221.895 270.121 221.157 253.797 222.093C207.81 224.742 178.246 251.562 180.231 288.83C181.239 307.735 190.657 323.998 206.749 334.622C220.354 343.603 237.877 347.995 256.089 347.001C280.139 345.682 299.007 336.506 312.169 319.727C322.166 306.986 328.488 290.473 331.28 269.668C342.742 276.585 351.236 285.687 355.928 296.63C363.905 315.231 364.37 345.798 339.429 370.718C317.577 392.549 291.31 401.993 251.612 402.284C207.577 401.958 174.274 387.836 152.621 360.31C132.345 334.535 121.866 297.306 121.476 249.655C121.866 202.004 132.345 164.775 152.621 139C174.274 111.474 207.577 97.3524 251.612 97.0252C295.966 97.3549 329.85 111.545 352.331 139.203C363.355 152.767 371.666 169.824 377.145 189.712L408.318 181.394C401.677 156.915 391.226 135.82 377.006 118.326C348.184 82.8667 306.032 64.6971 251.72 64.3203H251.503C197.301 64.6958 155.621 82.9345 127.621 118.529C102.704 150.205 89.8512 194.278 89.4193 249.525L89.418 249.655L89.4193 249.786C89.8512 305.032 102.704 349.107 127.621 380.782C155.621 416.376 197.301 434.616 251.503 434.99H251.72C299.908 434.656 333.875 422.04 361.857 394.083C398.466 357.509 397.364 311.663 385.298 283.519C376.641 263.337 360.136 246.945 337.568 236.119ZM254.367 314.343C234.212 315.478 213.273 306.431 212.24 287.054C211.475 272.687 222.465 256.656 255.604 254.746C259.399 254.527 263.123 254.42 266.782 254.42C278.819 254.42 290.08 255.589 300.318 257.827C296.499 305.516 274.1 313.26 254.367 314.343Z" fill="black"/>
</g>
<defs>
<clipPath id="clip0_6674_1828">
<rect width="370.67" height="370.67" fill="white" transform="translate(64.3203 64.3203)"/>
</clipPath>
</defs>
</svg>
