<svg width="500" height="500" viewBox="0 0 500 500" fill="none" xmlns="http://www.w3.org/2000/svg">
<g clip-path="url(#clip0_6518_1274)">
<rect width="499.311" height="499.311" fill="black"/>
<g clip-path="url(#clip1_6518_1274)">
<path d="M390.085 -0.000976562H109.222C48.8994 -0.000976562 -0.00195312 48.9004 -0.00195312 109.223V390.086C-0.00195312 450.409 48.8994 499.31 109.222 499.31H390.085C450.408 499.31 499.309 450.409 499.309 390.086V109.223C499.309 48.9004 450.408 -0.000976562 390.085 -0.000976562Z" fill="black"/>
<path d="M381.295 133.906C378.565 132.495 375.907 130.948 373.331 129.271C365.842 124.32 358.975 118.485 352.879 111.894C337.626 94.4415 331.929 76.7357 329.83 64.3398H329.915C328.162 54.0499 328.887 47.3926 328.996 47.3926H259.523V316.034C259.523 319.64 259.523 323.205 259.371 326.728C259.371 327.166 259.329 327.57 259.304 328.042C259.304 328.236 259.304 328.439 259.261 328.641C259.261 328.691 259.261 328.742 259.261 328.792C258.529 338.431 255.439 347.742 250.264 355.907C245.088 364.071 237.986 370.838 229.581 375.614C220.821 380.597 210.914 383.211 200.836 383.198C168.467 383.198 142.233 356.804 142.233 324.208C142.233 291.612 168.467 265.218 200.836 265.218C206.963 265.212 213.053 266.177 218.879 268.074L218.963 197.337C201.277 195.053 183.31 196.458 166.195 201.465C149.08 206.472 133.188 214.972 119.522 226.428C107.548 236.832 97.481 249.246 89.7744 263.111C86.8415 268.168 75.7766 288.485 74.4368 321.461C73.5942 340.178 79.2151 359.569 81.8947 367.582V367.751C83.5804 372.471 90.1115 388.574 100.755 402.151C109.338 413.041 119.477 422.607 130.849 430.542V430.374L131.017 430.542C164.65 453.396 201.94 451.896 201.94 451.896C208.395 451.635 230.019 451.896 254.576 440.258C281.813 427.356 297.318 408.134 297.318 408.134C307.224 396.649 315.101 383.559 320.611 369.428C326.898 352.902 328.996 333.082 328.996 325.16V182.64C329.839 183.146 341.064 190.57 341.064 190.57C341.064 190.57 357.236 200.935 382.467 207.686C400.568 212.489 424.956 213.5 424.956 213.5V144.532C416.411 145.459 399.06 142.763 381.295 133.906Z" fill="white"/>
</g>
</g>
<defs>
<clipPath id="clip0_6518_1274">
<rect width="499.311" height="499.311" fill="white"/>
</clipPath>
<clipPath id="clip1_6518_1274">
<rect width="499.311" height="499.311" fill="white" transform="translate(-0.00195312 -0.000976562)"/>
</clipPath>
</defs>
</svg>
