<svg width="500" height="500" viewBox="0 0 500 500" fill="none" xmlns="http://www.w3.org/2000/svg">
<g clip-path="url(#clip0_6518_1268)">
<rect width="499.311" height="499.311" rx="99.8622" fill="black"/>
<g clip-path="url(#clip1_6518_1268)">
<path d="M249.653 499.311C387.534 499.311 499.309 387.536 499.309 249.655C499.309 111.775 387.534 0 249.653 0C111.773 0 -0.00195312 111.775 -0.00195312 249.655C-0.00195312 387.536 111.773 499.311 249.653 499.311Z" fill="black"/>
<path d="M181.834 126.332H144.246L317.263 373.816H354.851L181.834 126.332ZM110.956 107.91H193.557L265.174 212.137L354.839 107.91H379.31L276.041 227.952L388.351 391.401H305.75L230.119 281.332L135.428 391.401H110.956L219.252 265.517L110.956 107.91Z" fill="white"/>
</g>
</g>
<defs>
<clipPath id="clip0_6518_1268">
<rect width="499.311" height="499.311" rx="99.8622" fill="white"/>
</clipPath>
<clipPath id="clip1_6518_1268">
<rect width="499.311" height="499.311" fill="white" transform="translate(-0.000976562)"/>
</clipPath>
</defs>
</svg>
