<svg width="500" height="500" viewBox="0 0 500 500" fill="none" xmlns="http://www.w3.org/2000/svg">
<g clip-path="url(#clip0_6719_1831)">
<g clip-path="url(#clip1_6719_1831)">
<path d="M447.189 150.414C442.438 132.663 428.487 118.713 410.736 113.962C378.596 105.341 249.655 105.341 249.655 105.341C249.655 105.341 120.716 105.341 88.5747 113.962C70.824 118.713 56.8745 132.663 52.1228 150.414C43.502 182.555 43.502 249.655 43.502 249.655C43.502 249.655 43.502 316.756 52.1228 348.898C56.8745 366.648 70.824 380.598 88.5747 385.349C120.716 393.97 249.655 393.97 249.655 393.97C249.655 393.97 378.596 393.97 410.736 385.349C428.487 380.598 442.438 366.648 447.189 348.898C455.81 316.756 455.81 249.655 455.81 249.655C455.81 249.655 455.775 182.555 447.189 150.414Z" fill="#FF0000"/>
<path d="M208.393 311.493L315.509 249.654L208.393 187.814V311.493Z" fill="white"/>
</g>
</g>
<defs>
<clipPath id="clip0_6719_1831">
<rect width="412.307" height="288.629" fill="white" transform="translate(43.502 105.341)"/>
</clipPath>
<clipPath id="clip1_6719_1831">
<rect width="412.307" height="288.629" fill="white" transform="translate(43.502 105.341)"/>
</clipPath>
</defs>
</svg>
